<svg xmlns="http://www.w3.org/2000/svg" xmlns:xlink="http://www.w3.org/1999/xlink" width="70" height="70" viewBox="0 0 70 70"><defs><style>.a,.g{fill:#fff;}.a{stroke:#707070;}.b{fill:#fff086;stroke:#fff;stroke-width:3px;}.c{clip-path:url(#a);}.d{fill:#207584;}.e{fill:#66c4d6;}.f{fill:#002d4c;}.h{fill:#070303;}.i{stroke:none;}.j{fill:none;}</style><clipPath id="a"><circle class="a" cx="32" cy="32" r="32" transform="translate(743 310)"/></clipPath></defs><g class="b"><circle class="i" cx="35" cy="35" r="35"/><circle class="j" cx="35" cy="35" r="33.5"/></g><g class="c" transform="translate(-740 -307)"><g transform="translate(747.698 313.773)"><path class="d" d="M305.944,418.879a27.171,27.171,0,0,0-5.581,3.176c-.64.473-6.087,4.543-5.292,6.254.2.439.883.861,2.983.77l3.464-3.56q-.241,1.973-.481,3.945c9.732,2.818,18.218.064,27.327.1a7.393,7.393,0,0,0-.384-3.945,7.153,7.153,0,0,0-1.059-1.828,9.438,9.438,0,0,1,4.041,5.966h2.117a21.149,21.149,0,0,0-1.636-6.928c-.107-.252-2.07-4.777-4.811-6.928C322.19,412.411,313.685,413.574,305.944,418.879Z" transform="translate(-287.276 -370.395)"/><path class="d" d="M383.962,367.8a7.8,7.8,0,0,1-1.058-3.56,8.514,8.514,0,0,1,1.828-5.389c.527-.624.66-.556.962-1.058,1.168-1.941-.033-4.291.289-4.426s1.952,1.9,2.983,5.1c.494,1.53,2.306,7.154-.577,10.969-.843,1.116-2.578,2.726-3.656,2.213C383.9,371.26,383.6,369.672,383.962,367.8Z" transform="translate(-335.418 -337.239)"/><path class="d" d="M283.956,367.8a7.8,7.8,0,0,0,1.059-3.56,8.516,8.516,0,0,0-1.828-5.389c-.526-.624-.66-.556-.962-1.058-1.168-1.941.033-4.291-.289-4.426s-1.952,1.9-2.983,5.1c-.493,1.53-2.306,7.154.577,10.969.843,1.116,2.578,2.726,3.657,2.213C284.017,371.26,284.322,369.672,283.956,367.8Z" transform="translate(-277.936 -337.239)"/><path class="e" d="M329.96,336.86a21.894,21.894,0,0,0-3.7-4.611l5.8-3.349h-6.082l2.812-2.485-7.128-.065,1.9-3.6-5.493,1.635,1.242-4.512-6.539,3.531.654-5.689-4.382,5.3-2.288-5.3-1.107,5.869-6.375-3.063,2.053,4.637-6.932-1.166,2.711,4.161c-6.251,2.829-9.472,11.03-10.235,18.051a19.611,19.611,0,0,0,10.484,19.173c4.035,2.008,8.635,2.525,13.136,2.775,4.733.262,9.749.2,13.831-2.214a16.877,16.877,0,0,0,5.951-6.364A23.107,23.107,0,0,0,329.96,336.86Z" transform="translate(-282.77 -317.717)"/><path class="f" d="M307.089,390.252a46.968,46.968,0,0,0,10.964,1.845,24.129,24.129,0,0,0,16.337-5.849c-.415,1.7-2.16,7.947-8.068,11.5-8.136,4.888-18.3,1.125-22.992-3.832-1.666-1.759-3.025-6.252-3.025-6.252A61.529,61.529,0,0,0,307.089,390.252Z" transform="translate(-290.186 -355.247)"/><path class="g" d="M364.507,393.781l1.781-1.163-.364-1.016c-.569.341-1.2.688-1.884,1.025Z" transform="translate(-325.09 -358.179)"/><path class="g" d="M353.5,398.737l1.979-1.093-.49-1.169a23.271,23.271,0,0,1-2.289.657Z" transform="translate(-318.877 -360.847)"/><path class="g" d="M363.045,403.081l-1.163-.974-1.732,1.583,1.048,1.228A16.564,16.564,0,0,0,363.045,403.081Z" transform="translate(-322.96 -363.931)"/><path class="g" d="M349.231,410.091l-2.424,1.287.489,1.249a15.794,15.794,0,0,0,2.89-.984Z" transform="translate(-315.652 -368.304)"/><path class="g" d="M340.966,399.071l.317,1.757,2.326-.4-.123-1.474A22.4,22.4,0,0,1,340.966,399.071Z" transform="translate(-312.453 -362.207)"/><path class="g" d="M320.4,396.5l-.389,1.695,2.227.556.579-1.714C321.922,396.866,321.124,396.681,320.4,396.5Z" transform="translate(-300.977 -360.861)"/><path class="g" d="M312.235,394.348a18.174,18.174,0,0,1-1.954-.622l-.579,1.527,1.883.886.843-1.746Z" transform="translate(-295.332 -359.342)"/><path class="g" d="M328.574,413.6a20.39,20.39,0,0,0,2.713.5l.241-1.585-2.573-.346Z" transform="translate(-305.667 -369.442)"/><path class="g" d="M314.166,407.474a21.475,21.475,0,0,0,2.1,1.2l.886-1.381-2.276-1.138Z" transform="translate(-297.777 -366.148)"/><path class="g" d="M310.678,361.38c-.13.632-.65,3.164.89,5.005a6,6,0,0,0,9.344-7.453,5.879,5.879,0,0,0-7.008-2.113C311.385,357.938,310.8,360.768,310.678,361.38Z" transform="translate(-295.763 -338.891)"/><path class="g" d="M341.843,360.15c-.13.633-.65,3.164.89,5.006a6,6,0,0,0,9.344-7.453,5.877,5.877,0,0,0-7.008-2.113C342.549,356.709,341.968,359.539,341.843,360.15Z" transform="translate(-312.83 -338.218)"/><circle class="h" cx="0.913" cy="0.913" r="0.913" transform="translate(32.425 21.945)"/><circle class="h" cx="0.913" cy="0.913" r="0.913" transform="translate(22.789 21.945)"/></g></g></svg>