<svg xmlns="http://www.w3.org/2000/svg" xmlns:xlink="http://www.w3.org/1999/xlink" width="70" height="70" viewBox="0 0 70 70"><defs><style>.a,.i{fill:#fff;}.a{stroke:#707070;}.b{fill:#6fe2c3;}.b,.c{stroke:#fff;}.c{fill:#c98cfd;stroke-width:3px;}.d{clip-path:url(#a);}.e{clip-path:url(#b);}.f{fill:#c97e00;}.g{fill:#ffdb53;}.h{fill:#5f5e5e;}.j{fill:#070303;}.k{fill:#fabe00;}.l{stroke:none;}.m{fill:none;}</style><clipPath id="a"><circle class="a" cx="32" cy="32" r="32" transform="translate(743 310)"/></clipPath><clipPath id="b"><path class="b" d="M32.626,0A32.626,32.626,0,1,1,0,32.626,32.626,32.626,0,0,1,32.626,0Z" transform="translate(1537.246 281.295)"/></clipPath></defs><g class="c"><circle class="l" cx="35" cy="35" r="35"/><circle class="m" cx="35" cy="35" r="33.5"/></g><g class="d" transform="translate(-740 -307)"><g class="e" transform="translate(-794 28)"><g transform="translate(907.679 -22.358)"><g transform="translate(668.321 311.627)"><path class="f" d="M709.973,324.329a4.276,4.276,0,0,0,4.64-1.021,6.959,6.959,0,0,0,1.344-2.38c.031-1.928-1.969-3.015-2.179-3.188l.65-.835c.219.156,2.4,1.752,2.32,4.083-.08,2.442-2.6,4.825-6.032,4.826Z" transform="translate(-709.973 -315.822)"/><circle class="g" cx="1.428" cy="1.428" r="1.428" transform="translate(2.393 0)"/></g><g transform="translate(648.865 309.974)"><path class="f" d="M667.456,320.142a4.278,4.278,0,0,1-4.641-1.021,6.968,6.968,0,0,1-1.344-2.38c-.031-1.929,1.969-3.015,2.18-3.189l-.65-.835c-.219.156-2.4,1.752-2.32,4.083.08,2.442,2.6,4.825,6.032,4.826Z" transform="translate(-660.679 -311.635)"/><circle class="g" cx="1.428" cy="1.428" r="1.428" transform="translate(1.528)"/></g><path class="f" d="M716.737,368.724a6.113,6.113,0,0,1,4.806-.352c3.051,1.225,4.226,5.4,3.517,5.744-1.069.522-1.38-1.739-4.153-2.788-2.648-1-4.6-.135-4.873-1.08C715.945,369.945,716.02,369.472,716.737,368.724Z" transform="translate(-45.303 -35.133)"/><path class="f" d="M716.737,385.327a6.114,6.114,0,0,1,4.806-.352c3.051,1.225,4.226,5.4,3.517,5.744-1.069.522-1.38-1.739-4.153-2.788-2.648-1-4.6-.135-4.873-1.08C715.945,386.549,716.02,386.076,716.737,385.327Z" transform="translate(-45.303 -45.183)"/><path class="f" d="M716.737,403.974a6.114,6.114,0,0,1,4.806-.352c3.051,1.225,4.226,5.4,3.517,5.744-1.069.522-1.38-1.739-4.153-2.788-2.648-1-4.6-.135-4.873-1.08C715.945,405.2,716.02,404.723,716.737,403.974Z" transform="translate(-45.303 -56.47)"/><path class="f" d="M716.737,419.625a6.111,6.111,0,0,1,4.806-.352c3.051,1.225,4.226,5.4,3.517,5.744-1.069.522-1.38-1.739-4.153-2.788-2.648-1-4.6-.135-4.873-1.081C715.945,420.847,716.02,420.374,716.737,419.625Z" transform="translate(-45.303 -65.944)"/><path class="f" d="M716.737,436.415a6.113,6.113,0,0,1,4.806-.352c3.051,1.225,4.226,5.4,3.517,5.744-1.069.522-1.38-1.739-4.153-2.788-2.648-1-4.6-.135-4.873-1.081C715.945,437.636,716.02,437.163,716.737,436.415Z" transform="translate(-45.303 -76.106)"/><path class="f" d="M716.737,453.018a6.112,6.112,0,0,1,4.806-.352c3.051,1.225,4.226,5.4,3.517,5.744-1.069.522-1.38-1.739-4.153-2.788-2.648-1-4.6-.135-4.873-1.08C715.945,454.239,716.02,453.767,716.737,453.018Z" transform="translate(-45.303 -86.156)"/><path class="f" d="M649.684,368.724a6.113,6.113,0,0,0-4.806-.352c-3.051,1.225-4.226,5.4-3.516,5.744,1.069.522,1.38-1.739,4.153-2.788,2.648-1,4.6-.135,4.873-1.08C650.476,369.945,650.4,369.472,649.684,368.724Z" transform="translate(0 -35.133)"/><path class="f" d="M649.684,385.327a6.115,6.115,0,0,0-4.806-.352c-3.051,1.225-4.226,5.4-3.516,5.744,1.069.522,1.38-1.739,4.153-2.788,2.648-1,4.6-.135,4.873-1.08C650.476,386.549,650.4,386.076,649.684,385.327Z" transform="translate(0 -45.183)"/><path class="f" d="M649.684,403.974a6.115,6.115,0,0,0-4.806-.352c-3.051,1.225-4.226,5.4-3.516,5.744,1.069.522,1.38-1.739,4.153-2.788,2.648-1,4.6-.135,4.873-1.08C650.476,405.2,650.4,404.723,649.684,403.974Z" transform="translate(0 -56.47)"/><path class="f" d="M649.684,419.625a6.111,6.111,0,0,0-4.806-.352c-3.051,1.225-4.226,5.4-3.516,5.744,1.069.522,1.38-1.739,4.153-2.788,2.648-1,4.6-.135,4.873-1.081C650.476,420.847,650.4,420.374,649.684,419.625Z" transform="translate(0 -65.944)"/><path class="f" d="M649.684,436.415a6.113,6.113,0,0,0-4.806-.352c-3.051,1.225-4.226,5.4-3.516,5.744,1.069.522,1.38-1.739,4.153-2.788,2.648-1,4.6-.135,4.873-1.081C650.476,437.636,650.4,437.163,649.684,436.415Z" transform="translate(0 -76.106)"/><path class="f" d="M649.684,453.018a6.113,6.113,0,0,0-4.806-.352c-3.051,1.225-4.226,5.4-3.516,5.744,1.069.522,1.38-1.739,4.153-2.788,2.648-1,4.6-.135,4.873-1.08C650.476,454.239,650.4,453.767,649.684,453.018Z" transform="translate(0 -86.156)"/><path class="g" d="M666.871,314.648c-2.817-.8-6.558,1.163-8.641,3.223a17.485,17.485,0,0,0-4.106,7.663,76.645,76.645,0,0,0-2.27,13.716l-2.564,24.705c-.25,2.408-.487,4.923.388,7.18,1.12,2.888,3.821,4.793,5.875,7.111,3.115,3.515,5.313,8.5,9.862,9.671,3.217.827,6.65-.673,9.1-2.911,4.788-4.368,6.592-11.19,6.748-17.67s-1.095-12.911-1.338-19.389c-.293-7.8.852-15.836-1.508-23.28-1.663-5.246-6.06-10.419-11.55-10.018" transform="translate(-4.781 -2.718)"/><g transform="translate(652.253 328.185)"><path class="h" d="M672.846,358.373a9.212,9.212,0,0,0,6.156-.414l3.239-1.185a9.4,9.4,0,0,1,2.415-.647,3.166,3.166,0,0,1,2.351.657,1.935,1.935,0,0,1,.529,2.264,3.094,3.094,0,0,1-1.242,1.1,27.081,27.081,0,0,1-5.263,2.571,11.623,11.623,0,0,1-5.782.533,18.022,18.022,0,0,1-4.993-2.036,2.013,2.013,0,0,1-.864-.691,1.381,1.381,0,0,1,.637-1.754,7.737,7.737,0,0,1,2.815-.4" transform="translate(-669.264 -356.112)"/><g transform="translate(1.54 0.001)"><path class="i" d="M681.629,362.331l.592,1.369.748-1.26A13,13,0,0,1,681.629,362.331Z" transform="translate(-678.289 -359.877)"/><path class="i" d="M673.785,363.258l.727-1.369a10.292,10.292,0,0,0-1.345.136Z" transform="translate(-673.167 -359.61)"/><path class="i" d="M677.945,363.4l.794-1.4c-.352-.049-.7-.105-1.053-.162-.118,0-.266.005-.425.009Z" transform="translate(-675.646 -359.58)"/><path class="i" d="M687.177,362.288c-.037.007-.073.017-.109.024a7.061,7.061,0,0,1-1.1.1l.807,1.26Z" transform="translate(-680.912 -359.851)"/><path class="i" d="M702.054,357.076c-.27.089-.538.184-.8.281l-.581.213,1.021.878Z" transform="translate(-689.815 -356.696)"/><path class="i" d="M706.371,356.128a6.231,6.231,0,0,0-1.232.244l1.061.982.836-1.226A3.993,3.993,0,0,0,706.371,356.128Z" transform="translate(-692.52 -356.114)"/><path class="i" d="M695.393,359.4l.96.933.559-1.488Z" transform="translate(-686.621 -357.769)"/><path class="i" d="M691.766,360.768l-.024.009c-.472.172-.946.343-1.43.474l.916.8Z" transform="translate(-683.546 -358.931)"/></g><g transform="translate(2.334 4.043)"><path class="i" d="M706.676,366.355l-.227,1.31c.522-.268,1.037-.553,1.546-.846Z" transform="translate(-694.106 -366.355)"/><path class="i" d="M681.2,371.554,680.446,370l-.622,1.132A11.442,11.442,0,0,0,681.2,371.554Z" transform="translate(-677.99 -368.56)"/><path class="i" d="M702.52,369.147l-1.151-.755-.588,1.517C701.373,369.684,701.951,369.426,702.52,369.147Z" transform="translate(-690.675 -367.588)"/><path class="i" d="M688.874,371.788l-1.005,1.1a11,11,0,0,0,2.03-.112Z" transform="translate(-682.86 -369.644)"/><path class="i" d="M675.177,369.567c.461.23.927.448,1.4.644l-.723-1.447Z" transform="translate(-675.177 -367.813)"/><path class="i" d="M685.1,372.8l-.429-1.113-.684.952c.058.012.115.028.174.039A9.322,9.322,0,0,0,685.1,372.8Z" transform="translate(-680.511 -369.581)"/><path class="i" d="M694.723,370.677l-.532,1.351a14.238,14.238,0,0,0,1.928-.495l.095-.034Z" transform="translate(-686.686 -368.971)"/></g></g><path class="i" d="M680.177,331.179a4.981,4.981,0,1,0,8.929-2.135,5.128,5.128,0,0,0-6.114-1.844A5.449,5.449,0,0,0,680.177,331.179Z" transform="translate(-23.517 -10.196)"/><circle class="j" cx="0.796" cy="0.796" r="0.796" transform="translate(660.83 320.198)"/><path class="k" d="M667.549,381.753a34.529,34.529,0,0,1-12.43-3.373q-.295,2.839-.589,5.678a41.721,41.721,0,0,0,28.689,1.822c-.057-2.188-.019-4.391.016-6.593A34.666,34.666,0,0,1,667.549,381.753Z" transform="translate(-8.092 -41.406)"/><path class="k" d="M666.443,409.836a50.625,50.625,0,0,1-14.119-2.55q-.227,2.188-.454,4.377a50.96,50.96,0,0,0,30.582,2.208c-.2-1.954-.409-3.907-.575-5.864A50.641,50.641,0,0,1,666.443,409.836Z" transform="translate(-6.482 -58.903)"/><path class="k" d="M663.441,434.551a117.89,117.89,0,0,0-13.676-1.785q-.146,1.4-.291,2.8c-.038.365-.075.732-.108,1.1a85.827,85.827,0,0,0,32.088,2.01c.03-1.638-.028-3.274-.135-4.908C672.942,435.48,667.364,435.358,663.441,434.551Z" transform="translate(-4.967 -74.327)"/></g></g></g></svg>