<svg xmlns="http://www.w3.org/2000/svg" xmlns:xlink="http://www.w3.org/1999/xlink" width="70" height="70" viewBox="0 0 70 70"><defs><style>.a,.n{fill:#fff;}.a{stroke:#707070;}.b,.c{fill:#6fe2c3;}.b{stroke:#fff;}.d{clip-path:url(#a);}.e{clip-path:url(#b);}.f,.l{fill:none;stroke-miterlimit:10;}.f{stroke:#606375;}.g{fill:#e8819c;}.h{fill:#606375;}.i{fill:#f7d0d8;}.j{fill:#070303;}.k{fill:#f5e5e5;}.l{stroke:#070303;}.m,.n{stroke:none;}</style><clipPath id="a"><circle class="a" cx="32" cy="32" r="32" transform="translate(743 310)"/></clipPath><clipPath id="b"><path class="b" d="M32.626,0A32.626,32.626,0,1,1,0,32.626,32.626,32.626,0,0,1,32.626,0Z" transform="translate(1537.246 281.295)"/></clipPath></defs><g class="c"><path class="m" d="M 35 68.5 C 30.47686958312988 68.5 26.08983039855957 67.61447143554688 21.96075057983398 65.86801910400391 C 17.97176933288574 64.18081665039062 14.38899040222168 61.76514053344727 11.31192970275879 58.68806838989258 C 8.234860420227051 55.61101150512695 5.819180011749268 52.02822875976562 4.131979942321777 48.03924942016602 C 2.3855299949646 43.91017150878906 1.5 39.52312850952148 1.5 35 C 1.5 30.47686958312988 2.3855299949646 26.08983039855957 4.131979942321777 21.96075057983398 C 5.819180011749268 17.97176933288574 8.234860420227051 14.38899040222168 11.31192970275879 11.31192970275879 C 14.38899040222168 8.234860420227051 17.97176933288574 5.819180011749268 21.96075057983398 4.131979942321777 C 26.08983039855957 2.3855299949646 30.47686958312988 1.5 35 1.5 C 39.52312850952148 1.5 43.91017150878906 2.3855299949646 48.03924942016602 4.131979942321777 C 52.02822875976562 5.819180011749268 55.61101150512695 8.234860420227051 58.68806838989258 11.31192970275879 C 61.76514053344727 14.38899040222168 64.18081665039062 17.97176933288574 65.86801910400391 21.96075057983398 C 67.61447143554688 26.08983039855957 68.5 30.47686958312988 68.5 35 C 68.5 39.52312850952148 67.61447143554688 43.91017150878906 65.86801910400391 48.03924942016602 C 64.18081665039062 52.02822875976562 61.76514053344727 55.61101150512695 58.68806838989258 58.68806838989258 C 55.61101150512695 61.76514053344727 52.02822875976562 64.18081665039062 48.03924942016602 65.86801910400391 C 43.91017150878906 67.61447143554688 39.52312850952148 68.5 35 68.5 Z"/><path class="n" d="M 35 3 C 30.67870712280273 3 26.4882698059082 3.845657348632812 22.54508209228516 5.513481140136719 C 18.73489379882812 7.125057220458984 15.3123779296875 9.432788848876953 12.37258911132812 12.37258911132812 C 9.432788848876953 15.3123779296875 7.125057220458984 18.73489379882812 5.513481140136719 22.54508209228516 C 3.845657348632812 26.4882698059082 3 30.67870712280273 3 35 C 3 39.32129669189453 3.845657348632812 43.5117301940918 5.513481140136719 47.45491790771484 C 7.125057220458984 51.26510620117188 9.432788848876953 54.6876220703125 12.37258911132812 57.62741088867188 C 15.3123779296875 60.56721115112305 18.73489379882812 62.87494277954102 22.54508209228516 64.48651885986328 C 26.4882698059082 66.15434265136719 30.67870712280273 67 35 67 C 39.32129669189453 67 43.5117301940918 66.15434265136719 47.45491790771484 64.48651885986328 C 51.26510620117188 62.87494277954102 54.6876220703125 60.56721115112305 57.62741088867188 57.62741088867188 C 60.56721115112305 54.6876220703125 62.87494277954102 51.26510620117188 64.48651885986328 47.45491790771484 C 66.15434265136719 43.5117301940918 67 39.32129669189453 67 35 C 67 30.67870712280273 66.15434265136719 26.4882698059082 64.48651885986328 22.54508209228516 C 62.87494277954102 18.73489379882812 60.56721115112305 15.3123779296875 57.62741088867188 12.37258911132812 C 54.6876220703125 9.432788848876953 51.26510620117188 7.125057220458984 47.45491790771484 5.513481140136719 C 43.5117301940918 3.845657348632812 39.32129669189453 3 35 3 M 35 0 C 54.32996368408203 0 70 15.67003631591797 70 35 C 70 54.32996368408203 54.32996368408203 70 35 70 C 15.67003631591797 70 0 54.32996368408203 0 35 C 0 15.67003631591797 15.67003631591797 0 35 0 Z"/></g><g class="d" transform="translate(-740 -307)"><g class="e" transform="translate(-794 28)"><g transform="translate(1401.806 59.093)"><path class="f" d="M157.848,278.972a14.393,14.393,0,0,1-3.959,0,4.848,4.848,0,0,1-3.284-2.027c-.953-1.535-.62-3.544.069-5.215.623-1.512,1.529-3.038,1.311-4.658a4.742,4.742,0,0,0-1.794-2.924,14.1,14.1,0,0,0-3.038-1.745" transform="translate(-2.956 -16.615)"/><path class="g" d="M141.512,253.283c.745,1.079,2.545,1.969,3.7,2.592a1.977,1.977,0,0,1,.771.645,1.638,1.638,0,0,1,.223.756,2.633,2.633,0,0,1-1,2.232,1.913,1.913,0,0,1-.7.357,2.4,2.4,0,0,1-2.281-1.039,6.445,6.445,0,0,1-.714-5.542" transform="translate(0 -12.09)"/><path class="h" d="M169.628,320.441c-.968,2.878-1.948,5.841-1.784,8.872a3.439,3.439,0,0,0,.268,1.3,1.434,1.434,0,0,0,.987.828,1.547,1.547,0,0,0,.94-.175,5.17,5.17,0,0,0,2.014-2.356,37.331,37.331,0,0,0,4.066-9.976,1.451,1.451,0,0,0-.18-1.342,1.278,1.278,0,0,0-.68-.3c-1.424-.268-4.553,2.172-5.631,3.14" transform="translate(-13.213 -43.84)"/><path class="h" d="M210.77,320.441c.968,2.878,1.948,5.841,1.784,8.872a3.43,3.43,0,0,1-.268,1.3,1.433,1.433,0,0,1-.987.828,1.549,1.549,0,0,1-.94-.175,5.169,5.169,0,0,1-2.014-2.356,37.331,37.331,0,0,1-4.066-9.976,1.451,1.451,0,0,1,.18-1.342,1.278,1.278,0,0,1,.68-.3c1.424-.268,4.553,2.172,5.631,3.14" transform="translate(-31.26 -43.84)"/><g transform="translate(150.625 228.915)"><path class="h" d="M168.763,244.849a5.357,5.357,0,0,0,2.293-4.824c-.473-3.1-4.512-3.348-6.639-7.8a10.833,10.833,0,0,1-.961-3.308,13.045,13.045,0,0,0-3.326,6.55c-.472,2.7-.462,8.094,2.926,9.839A5.66,5.66,0,0,0,168.763,244.849Z" transform="translate(-159.91 -228.915)"/><path class="i" d="M170.166,249.872c.937-1.412-1.031-4.158-2.8-5.447-.608-.444-1.124-.821-1.591-.651-1.267.462-2.053,4.9.213,6.437C167.3,251.1,169.477,250.909,170.166,249.872Z" transform="translate(-162.213 -236.266)"/></g><g transform="translate(174.628 228.915)"><path class="h" d="M209.883,244.849a5.357,5.357,0,0,1-2.293-4.824c.473-3.1,4.512-3.348,6.639-7.8a10.862,10.862,0,0,0,.961-3.308,13.049,13.049,0,0,1,3.325,6.55c.472,2.7.462,8.094-2.926,9.839A5.66,5.66,0,0,1,209.883,244.849Z" transform="translate(-207.547 -228.915)"/><path class="i" d="M213.731,249.872c-.937-1.412,1.03-4.158,2.8-5.447.608-.444,1.124-.821,1.591-.651,1.267.462,2.053,4.9-.213,6.437C216.594,251.1,214.42,250.909,213.731,249.872Z" transform="translate(-210.495 -236.266)"/></g><path class="g" d="M168.1,249.65c3.82,0,8.048.417,11.868.415,1.041,0,3.435-.1,4.473-.033,1.855.12,3.042-.019,3.889,1.032,2.226,2.761,2.234,5.649,2.737,9.159,1.087,7.581,1.431,9.209,2.518,16.791.1.668,1.631,9.341.745,11.014a9.9,9.9,0,0,1-3.392,3.178c-4.651,2.024-11.356,1.814-16.42,1.527-5.048-.286-7.841.458-12.223-2.064a9.891,9.891,0,0,1-3.324-2.613c-1.8-2.544-.525-9.825.416-12.8,2.1-6.625,2.809-13.532,4.064-20.367.424-2.307,2.312-5.011,4.646-5.244" transform="translate(-8.369 -10.287)"/><circle class="j" cx="1.016" cy="1.016" r="1.016" transform="translate(172.359 251.846)"/><circle class="j" cx="1.016" cy="1.016" r="1.016" transform="translate(161.625 251.846)"/><rect class="k" width="3.208" height="4.762" transform="translate(166.079 263.736) rotate(9.347)"/><rect class="k" width="3.208" height="4.762" transform="translate(173.028 268.434) rotate(170.653)"/><path class="l" d="M174.583,293.034c3.266,2.228,7.426,2.6,11.379,2.656a13.745,13.745,0,0,0,3.8-.323,14.825,14.825,0,0,0,4.716-2.638" transform="translate(-16.565 -31.66)"/><path class="g" d="M223.133,299.7a16.145,16.145,0,0,1,4.649,3.874,2.3,2.3,0,0,1,.406.791.958.958,0,0,1-.167.845,1.038,1.038,0,0,1-.563.3,3.461,3.461,0,0,1-2.037-.384,24.95,24.95,0,0,1-6.3-3.492c-.244-.2-.5-.461-.469-.774a.85.85,0,0,1,.231-.438c.629-.737,3.282-.777,4.25-.725" transform="translate(-38.427 -35.111)"/><path class="g" d="M157.107,299.7a16.139,16.139,0,0,0-4.649,3.874,2.3,2.3,0,0,0-.407.791.959.959,0,0,0,.167.845,1.042,1.042,0,0,0,.563.3,3.461,3.461,0,0,0,2.037-.384,24.945,24.945,0,0,0,6.3-3.492c.244-.2.5-.461.469-.774a.853.853,0,0,0-.23-.438c-.63-.737-3.282-.777-4.25-.725" transform="translate(-5.371 -35.111)"/></g></g></g></svg>