<svg xmlns="http://www.w3.org/2000/svg" xmlns:xlink="http://www.w3.org/1999/xlink" width="70" height="70" viewBox="0 0 70 70"><defs><style>.a{fill:#fff;stroke:#707070;}.b{fill:#69d1ff;stroke:#fff;stroke-width:3px;}.c{clip-path:url(#a);}.d{fill:#53b4aa;}.e{fill:#92a70b;}.f{fill:#d1d783;}.g{fill:#070303;}.h{stroke:none;}.i{fill:none;}</style><clipPath id="a"><circle class="a" cx="32" cy="32" r="32" transform="translate(743 310)"/></clipPath></defs><g class="b"><circle class="h" cx="35" cy="35" r="35"/><circle class="i" cx="35" cy="35" r="33.5"/></g><g class="c" transform="translate(-740 -307)"><g transform="translate(681.214 264.754)"><path class="d" d="M125.443,81.366A15.845,15.845,0,0,0,129.995,72a15.3,15.3,0,0,0-.8-6.694h0l1.071-.8a31.12,31.12,0,0,1,1.607,7.5c.328,3.758.688,7.87-1.607,9.371C129.8,81.667,128.369,82.428,125.443,81.366Z" transform="translate(-26.149 -7.406)"/><path class="d" d="M96.481,72.657a15.845,15.845,0,0,1-4.551-9.371,15.308,15.308,0,0,1,.8-6.693h0l-1.071-.8a31.147,31.147,0,0,0-1.606,7.5c-.328,3.758-.688,7.871,1.606,9.371C92.123,72.958,93.555,73.719,96.481,72.657Z" transform="translate(-8.113 -2.997)"/><path class="e" d="M80.723,84.06c-7.783,5.1-6.646,7.624-6.842,9.383-.575,5.18,1.486,12.085,5.865,16.029,6.641,5.983,17.643,5.488,24.826.391,4.68-3.321,10.453-10.521,8.406-18.18C110.4,82.039,94.8,79.955,90.888,79.955,89.911,79.955,86.392,80.346,80.723,84.06Z" transform="translate(0 -15.231)"/><circle class="e" cx="2.522" cy="2.522" r="2.522" transform="translate(100.654 54.168)"/><circle class="e" cx="2.522" cy="2.522" r="2.522" transform="translate(81.963 49.868)"/><path class="f" d="M103.736,114.048a27.369,27.369,0,0,1-8.674.229c-3.714-.634-7.228-6.164-7.228-10.336V101c0-4.172,3.075-7.586,6.833-7.586h11.942c3.758,0,6.833,3.414,6.833,7.586v2.94C113.442,108.113,107.443,113.362,103.736,114.048Z" transform="translate(-7.111 -22.044)"/><circle class="g" cx="0.996" cy="0.996" r="0.996" transform="translate(97.106 78.017)"/><circle class="g" cx="0.996" cy="0.996" r="0.996" transform="translate(86.588 78.017)"/><path class="g" d="M113.686,122.758c-.277,1.225-2.613,1.7-4.128,1.683-1.783-.019-3.452-.787-3.705-1.322-.265-.558.728-1.054.853-1.088,1.059-.3,1.784.587,2.834.64,1.976.1,3.05-1.587,3.811-1.054A1.152,1.152,0,0,1,113.686,122.758Z" transform="translate(-16.21 -36.268)"/><path class="e" d="M106.632,77.525a3.07,3.07,0,0,0-.587-4.3A3.153,3.153,0,0,1,108.2,74.4a2.672,2.672,0,0,1,.391.782.992.992,0,0,0,.391-1.759,1.923,1.923,0,0,1,1.173,1.173,1.743,1.743,0,0,1,0,.977,1.119,1.119,0,0,0,1.173-.782,1.019,1.019,0,0,0-.2-.782,2.419,2.419,0,0,1,.782,3.519Z" transform="translate(-16.33 -11.824)"/><path class="e" d="M101.46,155.922a47.428,47.428,0,0,0,8,.652,45.12,45.12,0,0,0,7.2-.624l-4.535-13.841-6.842.2Z" transform="translate(-14.009 -46.694)"/><path class="e" d="M122.456,147.133c.512.083,5.742,1.023,7.972,5.776a10.228,10.228,0,0,1,.68,6.418c-.291-.013-1.152-1.013-1.442-1.026.091-.553.645-2.621-1.934-5.773a10.837,10.837,0,0,0-5.865-3.933Z" transform="translate(-24.338 -49.237)"/><path class="e" d="M103.6,147.925c-.512.083-5.742,1.022-7.972,5.776a10.227,10.227,0,0,0-.68,6.418c.291-.013,1.152-1.013,1.443-1.026-.091-.553-.646-2.62,1.934-5.773a10.834,10.834,0,0,1,5.865-3.933Z" transform="translate(-10.592 -49.638)"/></g></g></svg>