<svg xmlns="http://www.w3.org/2000/svg" xmlns:xlink="http://www.w3.org/1999/xlink" width="70" height="70" viewBox="0 0 70 70"><defs><style>.a,.g{fill:#fff;}.a{stroke:#707070;}.b{fill:#ff9b9b;stroke:#fff;stroke-width:3px;}.c{clip-path:url(#a);}.d{fill:#0096a8;}.e{fill:#a7d4db;}.f{fill:#ffeb00;}.h{fill:#070303;}.i{stroke:none;}.j{fill:none;}</style><clipPath id="a"><circle class="a" cx="32" cy="32" r="32" transform="translate(743 310)"/></clipPath></defs><g class="b"><circle class="i" cx="35" cy="35" r="35"/><circle class="j" cx="35" cy="35" r="33.5"/></g><g class="c" transform="translate(-740 -307)"><g transform="translate(636.198 -109.319)"><g transform="translate(111.802 434.015)"><path class="d" d="M127.756,452.531a7.394,7.394,0,0,1-7.908-1.611c-2.461-2.7-2.246-7.626,1.172-10.69-1.044.158-6.512,1.078-8.494,5.126-3.293,6.725,5.453,17.147,10.1,16.255C123.519,461.44,126.1,460.505,127.756,452.531Z" transform="translate(-111.802 -440.23)"/><path class="e" d="M116.708,446.828a8.6,8.6,0,0,1,.877-.769,6.9,6.9,0,0,0,3.84,1.247,8.1,8.1,0,0,0-.292,1.2,4,4,0,0,1-2.774-.212A3.956,3.956,0,0,1,116.708,446.828Z" transform="translate(-114.629 -443.588)"/><path class="e" d="M111.922,457a17.484,17.484,0,0,0,6.426.445,6.9,6.9,0,0,0,.263.979,6.42,6.42,0,0,1-6.777-.486A8.019,8.019,0,0,1,111.922,457Z" transform="translate(-111.821 -449.89)"/><path class="e" d="M117.965,467.27a13.74,13.74,0,0,0,3.35-1.458,5.949,5.949,0,0,0,.743.641,5.811,5.811,0,0,1-7.274,2.8c-.259-.479-.494-.968-.7-1.465A13.743,13.743,0,0,0,117.965,467.27Z" transform="translate(-113.116 -454.968)"/><path class="e" d="M128.639,469.713c.137.039.276.072.417.1-.137,1.888-.887,5.355-3.409,6.5a4.5,4.5,0,0,1-2.164.36,15.864,15.864,0,0,1-1.618-1.532,8.054,8.054,0,0,0,4.582-1.866A7.915,7.915,0,0,0,128.639,469.713Z" transform="translate(-117.599 -457.216)"/></g><g transform="translate(148.547 432.573)"><path class="d" d="M198.488,449.129a7.4,7.4,0,0,0,7.908-1.611c2.46-2.7,2.246-7.626-1.172-10.69,1.044.158,6.512,1.078,8.494,5.126,3.293,6.725-5.453,17.147-10.1,16.255C202.726,458.039,200.147,457.1,198.488,449.129Z" transform="translate(-198.488 -436.828)"/><path class="e" d="M224.811,443.426a8.594,8.594,0,0,0-.876-.769,6.906,6.906,0,0,1-3.84,1.247,8.16,8.16,0,0,1,.292,1.2,4,4,0,0,0,2.774-.212A3.951,3.951,0,0,0,224.811,443.426Z" transform="translate(-210.936 -440.186)"/><path class="e" d="M226.8,453.6a17.481,17.481,0,0,1-6.426.445,6.952,6.952,0,0,1-.263.979,6.419,6.419,0,0,0,6.776-.486A8.018,8.018,0,0,0,226.8,453.6Z" transform="translate(-210.943 -446.488)"/><path class="e" d="M219.123,463.868a13.733,13.733,0,0,1-3.35-1.458,5.984,5.984,0,0,1-.744.641,5.81,5.81,0,0,0,7.274,2.8,16.123,16.123,0,0,0,.7-1.465A13.735,13.735,0,0,1,219.123,463.868Z" transform="translate(-208.018 -451.566)"/><path class="e" d="M209.515,466.312c-.137.039-.277.072-.417.1.137,1.888.888,5.355,3.41,6.5a4.5,4.5,0,0,0,2.164.36,15.834,15.834,0,0,0,1.618-1.532,8.052,8.052,0,0,1-4.582-1.866A7.913,7.913,0,0,1,209.515,466.312Z" transform="translate(-204.601 -453.814)"/></g><path class="f" d="M165.449,448.781a19.573,19.573,0,0,0-9.467-7.98v-.053c0-.684-.062-1.395,0-2.076a1,1,0,0,1,.095-.36,4.46,4.46,0,1,0-1.949-.787,3.012,3.012,0,0,0-.24.877,12.534,12.534,0,0,0-.033,1.685,18.682,18.682,0,0,0-5.335-.691c-1.279.025-3.168.057-4.943.218a13.713,13.713,0,0,0-.031-1.811,2.946,2.946,0,0,0-.077-.4,4.539,4.539,0,1,0-2.006.892c.03.529,0,1.069-.007,1.6a5.082,5.082,0,0,0-2.363.894c-6.41,1.6-9.647,9.386-10.361,15.954a16.774,16.774,0,0,0,7.459,15.493,6.36,6.36,0,0,0-2.1,1.512c-1.069,1.177-1.483,3.51-1.086,3.982.56.665,2.943-1.314,4.876-.319,1.212.624.977,1.764,2.057,2.125,1.619.542,2.719-1.833,4.723-1.588s2.392,2.8,3.994,2.7c1.538-.095,1.808-2.485,3.42-2.6,1.648-.12,2.586,2.292,3.713,1.942,1.033-.321.6-2.456,1.827-3.036,1.366-.647,2.967,1.512,4.131.852.807-.457,1.018-2.048.486-3.1a2.819,2.819,0,0,0-1.42-1.257,14.477,14.477,0,0,0,4.9-5.312A19.687,19.687,0,0,0,165.449,448.781Z" transform="translate(-9.702)"/><path class="d" d="M155.566,495.591c5.351-.292,11.4.909,16.154.319.646,1.442.415,2.585.355,4.141a5.351,5.351,0,0,1-1.13,3.744,5.234,5.234,0,0,1-2.047,1.13,15.65,15.65,0,0,1-10.712-.281,6.326,6.326,0,0,1-1.809-1.025,5,5,0,0,1-1.1-1.435c-1.022-1.906-.5-4.6.287-6.592" transform="translate(-24.721 -38.082)"/><g transform="translate(132.703 457.464)"><path class="g" d="M162.144,497.428c.685.228,1.855-.4,2.481-1.759-1.181-.07-2.358-.12-3.515-.121A2.087,2.087,0,0,0,162.144,497.428Z" transform="translate(-161.11 -495.548)"/><path class="g" d="M174.438,496.162c-1.419-.082-2.871-.194-4.324-.284a2.53,2.53,0,0,0,1.5,2.232A2.726,2.726,0,0,0,174.438,496.162Z" transform="translate(-166.297 -495.738)"/><path class="g" d="M185.159,496.653c-1.3.054-2.664.016-4.067-.06a2.567,2.567,0,0,0,1.939,2.241C183.817,498.866,184.828,498.011,185.159,496.653Z" transform="translate(-172.622 -496.15)"/></g><g transform="translate(133.948 465.349)"><path class="g" d="M165.935,514.276a2.686,2.686,0,0,0-1.887,1.326,15.415,15.415,0,0,0,4.3.879,1.887,1.887,0,0,0-.185-1.268A2.2,2.2,0,0,0,165.935,514.276Z" transform="translate(-164.048 -514.209)"/><path class="g" d="M179.545,514.44a1.981,1.981,0,0,0-2.054,0c-.564.484-.344,1.356-.591,2.011a15.537,15.537,0,0,0,3.781-.509A2.332,2.332,0,0,0,179.545,514.44Z" transform="translate(-171.452 -514.15)"/></g><path class="g" d="M187.46,434.946a3.194,3.194,0,1,0,5.726-1.369,3.289,3.289,0,0,0-3.921-1.183A3.5,3.5,0,0,0,187.46,434.946Z" transform="translate(-43.527 -1.559)"/><circle class="h" cx="0.855" cy="0.855" r="0.855" transform="translate(147.203 433.717)"/><path class="g" d="M155.85,434.946a3.194,3.194,0,1,1-5.726-1.369,3.289,3.289,0,0,1,3.921-1.183A3.5,3.5,0,0,1,155.85,434.946Z" transform="translate(-21.757 -1.559)"/><circle class="h" cx="0.855" cy="0.855" r="0.855" transform="translate(129.114 433.717)"/></g></g></svg>